<svg xmlns="http://www.w3.org/2000/svg" viewBox="0 0 64 64" width="64" height="64">
  <defs>
    <linearGradient id="g1" x1="0" y1="1" x2="0" y2="0">
      <stop offset="0" stop-color="#3730a3"/>
      <stop offset="1" stop-color="#a78bfa"/>
    </linearGradient>
    <linearGradient id="g2" x1="0" y1="1" x2="0" y2="0">
      <stop offset="0" stop-color="#312e81"/>
      <stop offset="1" stop-color="#a78bfa"/>
    </linearGradient>
    <linearGradient id="g3" x1="0" y1="1" x2="0" y2="0">
      <stop offset="0" stop-color="#4338ca"/>
      <stop offset="1" stop-color="#a78bfa"/>
    </linearGradient>
  </defs>
  <rect width="64" height="64" rx="16" fill="#020617"/>
  <!-- 2nd -->
  <rect x="16" y="28" width="10" height="20" rx="5" fill="url(#g1)"/>
  <path d="M21 21l.6 1.8h1.9l-1.5 1.1.6 1.8-1.6-1.1-1.6 1.1.6-1.8-1.5-1.1h1.9z" fill="#e5e7eb"/>
  <!-- 1st -->
  <rect x="27" y="22" width="10" height="26" rx="5" fill="url(#g2)"/>
  <path d="M32 15l.6 1.8h1.9l-1.5 1.1.6 1.8-1.6-1.1-1.6 1.1.6-1.8-1.5-1.1h1.9z" fill="#fbbf24"/>
  <!-- 3rd -->
  <rect x="38" y="32" width="10" height="16" rx="5" fill="url(#g3)"/>
  <path d="M43 25l.6 1.8h1.9l-1.5 1.1.6 1.8-1.6-1.1-1.6 1.1.6-1.8-1.5-1.1h1.9z" fill="#fb923c"/>
</svg>
