<svg xmlns="http://www.w3.org/2000/svg" width="128" height="128" viewBox="0 0 128 128">
  <defs>
    <linearGradient id="bg" x1="0" y1="0" x2="1" y2="1">
      <stop offset="0" stop-color="#60a5fa"/>
      <stop offset="0.55" stop-color="#a78bfa"/>
      <stop offset="1" stop-color="#f472b6"/>
    </linearGradient>
    <radialGradient id="shine" cx="35%" cy="25%" r="70%">
      <stop offset="0" stop-color="rgba(255,255,255,0.7)"/>
      <stop offset="1" stop-color="rgba(255,255,255,0)"/>
    </radialGradient>
  </defs>
  <circle cx="64" cy="64" r="62" fill="url(#bg)"/>
  <circle cx="64" cy="64" r="62" fill="url(#shine)"/>
  <!-- shoulders -->
  <path d="M22 116c8-22 24-32 42-32s34 10 42 32" fill="rgba(2,6,23,0.35)"/>
  <!-- hair -->
  <path d="M44 44c6-10 14-14 20-14s14 4 20 14c2 4 2 10-1 14-2-6-7-10-13-10H58c-6 0-11 4-13 10-3-4-3-10-1-14z" fill="rgba(2,6,23,0.55)"/>
  <!-- face -->
  <circle cx="64" cy="60" r="20" fill="rgba(255,255,255,0.55)"/>
  <!-- eyes -->
  <circle cx="56" cy="60" r="2.5" fill="rgba(2,6,23,0.55)"/>
  <circle cx="72" cy="60" r="2.5" fill="rgba(2,6,23,0.55)"/>
  <!-- smile -->
  <path d="M56 70c3 4 13 4 16 0" stroke="rgba(2,6,23,0.5)" stroke-width="3" stroke-linecap="round" fill="none"/>
</svg>

